<?xml version="1.0" encoding="utf-8"?>
<!-- Generator: Adobe Illustrator 24.3.0, SVG Export Plug-In . SVG Version: 6.00 Build 0)  -->
<svg version="1.1" id="Layer_1" xmlns="http://www.w3.org/2000/svg" xmlns:xlink="http://www.w3.org/1999/xlink" x="0px" y="0px"
	 viewBox="0 0 566.9 211.5" style="enable-background:new 0 0 566.9 211.5;" xml:space="preserve">
<g>
	<path d="M83.4,87.9v66.7c2.6,0.3,5.2,0.5,7.9,0.5c2,0,4-0.1,6-0.3V87.9H83.4z"/>
	<path d="M24.2,87.9c0,18.2,7.3,34.7,19,46.8V87.9H24.2z"/>
	<path d="M158.5,87.9h-48v64.4C138.3,144,158.5,118.3,158.5,87.9z"/>
	<path d="M56.4,87.9v57.4c4.3,2.6,9,4.8,13.9,6.4V87.9H56.4z"/>
</g>
<g>
	<path d="M87.6,31.6c-16.7-11.3-39.5-6.9-50.8,9.8c0,0,0,0,0,0l60.6,41c0,0,0,0,0,0C108.7,65.7,104.3,42.9,87.6,31.6z"/>
</g>
<g>
	<path d="M291.8,87.9c-3.6,0-6.7,1.3-9.4,4c-2.7,2.7-4,5.8-4,9.4v50.1c0,2.6-0.9,4.8-2.8,6.6c-1.9,1.8-4.2,2.7-6.9,2.7
		c-2.3,0-4.5-0.8-6.5-2.4c-2-1.6-3-3.9-3-6.9v-50.1c0-3.7-1.3-6.9-4-9.5c-2.7-2.6-5.9-3.9-9.6-3.9c-3.4,0-6.5,1.2-9.3,3.6
		c-2.8,2.4-4.1,5.3-4.1,8.8v51.2c-0.1,2.8-1.2,5-3.1,6.7c-1.9,1.7-4.1,2.6-6.4,2.6c-2.6,0-4.8-0.9-6.7-2.7c-1.9-1.8-2.9-4.1-3-6.8
		V100c-0.3-3.3-1.7-6.2-4.2-8.6c-2.5-2.4-5.6-3.6-9.2-3.6c-1.9,0-3.7,0.3-5.4,1c-1.7,0.7-3.1,1.7-4.3,2.9c-1.2,1.2-2.2,2.7-3,4.3
		c-0.8,1.7-1.1,3.4-0.9,5.2V152c0,4.8,1,9.4,2.9,13.7c1.9,4.3,4.5,8.1,7.8,11.4c3.3,3.2,7.2,5.8,11.7,7.7c4.5,1.9,9.3,2.9,14.3,2.9
		c4.1,0,8.2-0.6,12.1-2c3.9-1.3,7.5-3.3,10.8-6.1c6.6,5.4,14.3,8,23.1,8c4.8,0,9.5-0.9,13.9-2.8c4.5-1.9,8.4-4.4,11.8-7.5
		c3.4-3.2,6.1-6.9,8-11.3c2-4.4,3-9.1,3-14v-51.8c0-3.3-1.4-6.2-4.1-8.7C298.5,89.1,295.3,87.9,291.8,87.9z"/>
	<path d="M365.8,88.1c-6.7,0.3-13.1,1.7-19.1,4.2c-2,0.8-3.8,1.8-5.6,2.8c-0.6-1.1-1.3-2.1-2.1-3.1c-2.4-2.6-5.4-3.9-9-3.9
		c-3.6,0.1-6.7,1.4-9.3,3.7c-2.6,2.3-4.1,5.3-4.3,8.9v31.6c-0.1,1.4-0.3,2.8-0.3,4.2v38.2c0.3,4,1.7,7.2,4.1,9.6
		c1.9,1.9,4.2,3,6.9,3.4c0.9,0.2,1.9,0.3,2.9,0.3c0.6,0,1.2-0.2,1.8-0.3c0.3,0,0.6-0.1,0.9-0.1c0.1,0,0.3-0.1,0.4-0.1
		c2.4-0.5,4.4-1.5,6-3.1c2.4-2.3,3.7-5.3,4-8.9V138c0-3.3,0.6-6.4,1.9-9.2c1.2-2.8,2.9-5.3,5-7.3c2.1-2.1,4.5-3.7,7.2-4.8
		c2.7-1.2,5.7-1.8,8.9-1.8c3.9-0.1,7.1-1.5,9.7-4c2.6-2.5,3.9-5.7,3.9-9.4c-0.3-3.7-1.7-6.9-4.2-9.5
		C372.9,89.4,369.7,88.1,365.8,88.1z"/>
	<path d="M469.8,100.1c0-3.8-1.4-7-4.1-9.8c-2.9-2.6-6.2-4-9.9-4c-3.7-0.1-7,1.3-9.7,4L415,121.5V69.7c0-3.8-1.3-7.1-4-9.8
		c-2.7-2.7-6-4-9.8-4c-3.9,0-7.2,1.4-9.9,4.2c-2.8,2.8-4.1,6-4.1,9.6v104.2c0,3.9,1.4,7.1,4.3,9.8c2.9,2.7,6.1,4,9.7,4
		c3.7,0,6.9-1.4,9.7-4.2c2.7-2.8,4.1-6,4.1-9.6v-21l31.2,31c2.9,2.9,6.2,4.2,9.9,4c3.7-0.2,6.9-1.5,9.7-4c2.8-2.7,4.1-6,4.1-9.8
		c0-3.8-1.4-7.1-4.1-9.8l-27.2-27l27.2-27.2C468.5,107.2,469.8,103.9,469.8,100.1z"/>
	<path d="M537.2,92c-2.5-2.6-5.7-3.9-9.6-3.9c-6.7,0.3-13.1,1.7-19.1,4.2c-2.1,0.9-4,1.9-5.9,3c-0.6-1.2-1.3-2.2-2.2-3.2
		c-2.4-2.6-5.4-3.9-9-3.9c-3.6,0.1-6.7,1.4-9.3,3.7c-2.6,2.3-4.1,5.3-4.3,8.9v74.7c0.5,4,2.1,7.1,4.5,9.3c2.5,2.2,5.5,3.3,9.1,3.3
		c0.5,0,0.9-0.1,1.4-0.2c3.3-0.3,6-1.4,8.1-3.4c2.4-2.3,3.7-5.3,4-8.9V138c0-3.3,0.6-6.4,1.9-9.2c1.2-2.8,2.9-5.3,5-7.3
		c2.1-2.1,4.5-3.7,7.2-4.8c2.8-1.2,5.7-1.8,8.9-1.8c3.8-0.1,7.1-1.5,9.7-4c2.6-2.5,3.9-5.7,3.9-9.4C541.2,97.8,539.8,94.6,537.2,92z
		"/>
</g>
<g>
	<path d="M134.3,58.4c-13.2,0-24,10.7-24,24c0,0,0,0,0,0h48c0,0,0,0,0,0C158.3,69.2,147.6,58.4,134.3,58.4z M134.3,75.8
		c-2.7,0-5-2.2-5-5c0-2.7,2.2-5,5-5c2.7,0,5,2.2,5,5C139.3,73.5,137.1,75.8,134.3,75.8z"/>
</g>
</svg>
